<svg height="512pt" viewBox="-40 0 512 512.00063" width="512pt" xmlns="http://www.w3.org/2000/svg"><path d="m429.203125 236.683594c-.011719-.140625-.027344-.277344-.046875-.414063-2.890625-27.039062-9.117188-53.3125-18.140625-77.804687-.179687-.683594-.425781-1.339844-.734375-1.957032-10.984375-29.210937-25.96875-55.816406-44.042969-78.058593-.1875-.253907-.386719-.496094-.59375-.730469-17.46875-21.320312-37.78125-38.585938-60.140625-50.199219-70.65625-36.691406-109.347656-36.691406-180.007812 0-22.390625 11.625-42.726563 28.917969-60.207032 50.273438-.15625.179687-.308593.363281-.449218.550781-18.0625 22.203125-33.042969 48.761719-44.035156 77.925781-.40625.757813-.707032 1.570313-.910157 2.429688-8.898437 24.210937-15.058593 50.164062-17.972656 76.871093-.109375.546876-.164063 1.109376-.179687 1.683594-1.148438 11.035156-1.742188 22.191406-1.742188 33.40625 0 14.007813 10.304688 22.574219 22.234375 32.492188 18.402344 15.296875 43.609375 36.25 48.511719 90.570312 1.042968 11.527344.445312 23.492188-.128906 35.070313-1.191407 23.90625-2.320313 46.488281 11.746093 60.976562 8.871094 9.132813 22.285157 13.386719 41.050781 13.003907l20.667969-.421876c5.488281-.113281 9.878907-4.59375 9.878907-10.082031v-144.871093c5.421874 3.339843 11.175781 6.246093 17.203124 8.65625l8.097657 124.636718c1.355469 20.558594 17.214843 31.308594 32.1875 31.308594h.015625c14.964844-.007812 30.816406-10.765625 32.152344-31.320312l7.957031-122.625c5.734375-1.964844 11.246093-4.363282 16.492187-7.15625v141.371093c0 5.488281 4.386719 9.96875 9.875 10.082031l20.671875.425782c.785157.015625 1.558594.023437 2.324219.023437 18.105469 0 31.554688-4.46875 41.054688-13.632812 16.3125-15.738281 16.703124-40.902344 17.117187-67.546875.105469-6.890625.21875-13.957032.613281-20.921875.023438-.214844.03125-.433594.042969-.65625.125-2.117188.273437-4.226563.460937-6.320313 4.917969-54.3125 30.128907-75.265625 48.535157-90.566406 11.933593-9.917969 22.238281-18.484375 22.238281-32.496094 0-11.410156-.613281-22.757812-1.796875-33.976562zm-215.132813 107.394531c-49.476562 0-89.726562-37.246094-89.726562-83.027344v-92.914062c10.480469-6.546875 26.757812-11.902344 47.519531-15.597657 5.484375-.972656 9.136719-6.210937 8.160157-11.695312-.972657-5.480469-6.207032-9.132812-11.691407-8.160156-23.371093 4.15625-41.636719 10.28125-54.457031 18.234375h-69.339844c8.929688-20.796875 20.066406-39.863281 32.996094-56.394531h113.160156c4.855469 11.460937 14.035156 19.042968 24.792969 19.042968 10.769531 0 19.960937-7.582031 24.820313-19.042968h113.15625c12.933593 16.53125 24.070312 35.597656 33 56.394531h-72.21875c-12.613282-7.820313-30.539063-13.886719-53.457032-18.058594-5.476562-.992187-10.730468 2.636719-11.726562 8.117187-1 5.476563 2.632812 10.726563 8.113281 11.726563 20.339844 3.703125 36.300781 9 46.597656 15.433594v92.914062c0 45.78125-40.238281 83.027344-89.699219 83.027344zm-123.488281 45.421875c-2.816406-27.632812-10.441406-47.804688-19.777343-63.109375h58.269531c1.511719 1.734375 3.089843 3.417969 4.71875 5.054687v58.054688zm-53.824219-218.414062h67.414063v56.363281h-80.929687c2.765624-19.480469 7.347656-38.417969 13.515624-56.363281zm178.726563-77.691407c-2.929687 0-8.320313-6.777343-8.320313-17.851562 0-11.09375 5.386719-17.882813 8.320313-17.882813 2.945313 0 8.351563 6.789063 8.351563 17.882813 0 11.074219-5.40625 17.851562-8.351563 17.851562zm108.453125 77.691407h70.304688c6.167968 17.945312 10.75 36.882812 13.515624 56.363281h-83.820312zm-189.148438-125.667969c64.875-33.6875 96.554688-33.6875 161.421876 0 14.058593 7.300781 27.230468 17.113281 39.28125 28.9375h-91.511719c-.453125-20.765625-12.800781-36.863281-28.492188-36.863281-15.679687 0-28.011719 16.097656-28.46875 36.863281h-91.519531c12.054688-11.824219 25.226562-21.636719 39.289062-28.9375zm-99.660156 242.226562c-8.359375-6.949219-14.960937-12.4375-14.960937-16.988281 0-7.71875.296875-15.40625.875-23.039062h83.128906v13.433593c0 16.191407 3.996094 31.519531 11.105469 45.167969h-59.84375c-7.0625-7.558594-14.167969-13.472656-20.304688-18.574219zm87.871094 194.964844c-12.664062.261719-21.472656-2.058594-26.167969-6.894531-7.953125-8.191406-7.039062-26.515625-6.074219-45.917969.328126-6.597656.65625-13.316406.710938-20.128906h42.324219v72.71875zm100.488281-3.238281c-.597656 9.183594-6.609375 12.457031-12.035156 12.460937h-.003906c-5.4375 0-11.457031-3.277343-12.0625-12.457031l-7.617188-117.265625c7.203125 1.398437 14.664063 2.136719 22.300781 2.136719 5.769532 0 11.4375-.421875 16.96875-1.230469zm75.558594-152.980469h61.140625c-9.339844 15.304687-16.96875 35.476563-19.796875 63.109375h-52.15625v-52.378906c3.867187-3.332032 7.480469-6.917969 10.8125-10.730469zm28.941406 148.257813c-5.84375 5.636718-15.320312 8.226562-28.964843 7.960937l-10.792969-.222656v-72.71875h50.945312c-.109375 3.917969-.171875 7.804687-.234375 11.636719-.347656 22.332031-.675781 43.429687-10.953125 53.34375zm67.882813-187.003907c-6.140625 5.101563-13.246094 11.015625-20.308594 18.578125h-62.722656c7.101562-13.652344 11.097656-28.980468 11.097656-45.171875v-13.433593h86.019531c.578125 7.632812.875 15.320312.875 23.042968 0 4.546875-6.601562 10.035156-14.960937 16.984375zm0 0"/><path d="m214.242188 127.765625h-.171876c-5.570312 0-10.085937 4.515625-10.085937 10.085937 0 5.570313 4.515625 10.082032 10.085937 10.082032h.171876c5.566406 0 10.082031-4.515625 10.082031-10.082032 0-5.570312-4.515625-10.085937-10.082031-10.085937zm0 0"/><path d="m186.578125 202.003906h-28.542969c-5.570312 0-10.085937 4.515625-10.085937 10.085938 0 5.570312 4.515625 10.082031 10.085937 10.082031h28.542969c5.566406 0 10.082031-4.515625 10.082031-10.082031 0-5.570313-4.515625-10.085938-10.082031-10.085938zm0 0"/><path d="m272.542969 202.003906h-28.542969c-5.570312 0-10.082031 4.515625-10.082031 10.085938 0 5.570312 4.511719 10.082031 10.082031 10.082031h28.542969c5.566406 0 10.082031-4.515625 10.082031-10.082031 0-5.570313-4.515625-10.085938-10.082031-10.085938zm0 0"/></svg>